<svg xmlns="http://www.w3.org/2000/svg" xmlns:xlink="http://www.w3.org/1999/xlink" width="500" zoomAndPan="magnify" viewBox="0 0 375 374.999991" height="500" preserveAspectRatio="xMidYMid meet" version="1.0"><defs><clipPath id="3c975c84ab"><path d="M 166 108.125 L 211 108.125 L 211 193 L 166 193 Z M 166 108.125 " clip-rule="nonzero"/></clipPath><clipPath id="26f58238a8"><path d="M 129.632812 210 L 185 210 L 185 231 L 129.632812 231 Z M 129.632812 210 " clip-rule="nonzero"/></clipPath><clipPath id="72d5b7c033"><path d="M 162 216 L 214 216 L 214 235.625 L 162 235.625 Z M 162 216 " clip-rule="nonzero"/></clipPath><clipPath id="ed6180ac37"><path d="M 168 190 L 245.132812 190 L 245.132812 228 L 168 228 Z M 168 190 " clip-rule="nonzero"/></clipPath></defs><path fill="#cb6ce6" d="M 161.636719 164.847656 L 156.539062 166.90625 L 156.539062 162.632812 L 161.636719 160.574219 Z M 161.636719 171.179688 L 156.539062 173.234375 L 156.539062 168.960938 L 161.636719 166.90625 Z M 161.636719 177.511719 L 156.539062 179.566406 L 156.539062 175.292969 L 161.636719 173.234375 Z M 161.636719 183.839844 L 156.539062 185.894531 L 156.539062 181.621094 L 161.636719 179.566406 Z M 161.636719 190.167969 L 156.539062 192.226562 L 156.539062 187.953125 L 161.636719 185.894531 Z M 161.636719 196.5 L 156.539062 198.558594 L 156.539062 194.28125 L 161.636719 192.226562 Z M 161.636719 202.832031 L 156.539062 204.886719 L 156.539062 200.613281 L 161.636719 198.558594 Z M 155.425781 167.351562 L 150.910156 169.175781 L 150.910156 164.902344 L 155.425781 163.082031 Z M 155.425781 173.683594 L 150.910156 175.503906 L 150.910156 171.230469 L 155.425781 169.410156 Z M 155.425781 180.015625 L 150.910156 181.835938 L 150.910156 177.5625 L 155.425781 175.742188 Z M 155.425781 186.34375 L 150.910156 188.164062 L 150.910156 183.890625 L 155.425781 182.070312 Z M 155.425781 192.675781 L 150.910156 194.496094 L 150.910156 190.222656 L 155.425781 188.398438 Z M 155.425781 199.003906 L 150.910156 200.828125 L 150.910156 196.550781 L 155.425781 194.730469 Z M 155.425781 205.335938 L 150.910156 207.15625 L 150.910156 202.882812 L 155.425781 201.0625 Z M 149.796875 169.625 L 144.699219 171.679688 L 144.699219 167.40625 L 149.796875 165.347656 Z M 149.796875 175.957031 L 144.699219 178.011719 L 144.699219 173.738281 L 149.796875 171.679688 Z M 149.796875 182.285156 L 144.699219 184.339844 L 144.699219 180.066406 L 149.796875 178.011719 Z M 149.796875 188.613281 L 144.699219 190.671875 L 144.699219 186.398438 L 149.796875 184.339844 Z M 149.796875 194.945312 L 144.699219 197.003906 L 144.699219 192.726562 L 149.796875 190.671875 Z M 149.796875 201.273438 L 144.699219 203.332031 L 144.699219 199.058594 L 149.796875 197.003906 Z M 149.796875 207.605469 L 144.699219 209.660156 L 144.699219 205.386719 L 149.796875 203.332031 Z M 168.75 161.789062 L 168.75 161.785156 L 162.785156 158.117188 L 143.816406 165.765625 L 143.816406 211.421875 L 144.03125 211.203125 L 144.886719 210.332031 L 148.136719 210.332031 L 149.796875 209.660156 L 149.796875 210.332031 L 150.910156 210.332031 L 150.910156 209.210938 L 155.425781 207.390625 L 155.425781 210.332031 L 155.902344 210.332031 L 155.902344 207.363281 L 156.539062 207.363281 L 156.539062 206.941406 L 161.636719 204.886719 L 161.636719 207.363281 L 164.785156 207.363281 L 164.785156 210.332031 L 165.28125 210.332031 L 166.148438 209.441406 L 170.996094 204.464844 L 172.480469 202.9375 L 177.707031 197.574219 L 177.707031 167.300781 L 168.75 161.789062 " fill-opacity="1" fill-rule="nonzero"/><g clip-path="url(#3c975c84ab)"><path fill="#5e17eb" d="M 196.691406 114.820312 L 196.566406 114.808594 L 182.402344 108.125 L 180.140625 110.347656 L 178.996094 111.46875 L 175.746094 114.652344 L 174.601562 115.777344 L 171.730469 118.59375 L 170.582031 119.722656 L 166.414062 123.8125 L 166.414062 156.519531 L 168.320312 157.691406 L 168.320312 124.753906 L 170.582031 122.527344 L 170.582031 159.082031 L 171.730469 159.789062 L 171.730469 121.390625 L 174.601562 118.558594 L 174.601562 156.667969 L 175.746094 156.667969 L 175.746094 117.421875 L 178.996094 114.222656 L 178.996094 164.261719 L 179.417969 164.519531 L 180.140625 164.964844 L 180.140625 113.089844 L 182.402344 110.859375 L 182.402344 192.753906 L 182.503906 192.652344 L 183.359375 191.773438 L 193.390625 191.773438 L 193.390625 142.484375 L 195.136719 141.566406 L 207.5625 135.039062 L 209.308594 134.125 L 210.808594 135.160156 L 210.808594 121.4375 L 196.691406 114.820312 " fill-opacity="1" fill-rule="nonzero"/></g><path fill="#cb6ce6" d="M 222.382812 154.421875 L 208.933594 146 L 208.933594 142.824219 L 231.152344 153.152344 L 209.082031 137.929688 L 196.65625 144.453125 L 196.65625 153.152344 L 208.933594 148.441406 L 222.382812 154.421875 " fill-opacity="1" fill-rule="nonzero"/><path fill="#cb6ce6" d="M 196.65625 156.503906 L 196.65625 165.207031 L 208.933594 160.492188 L 222.382812 166.472656 L 208.933594 158.050781 L 208.933594 154.875 L 231.152344 165.207031 L 209.082031 149.980469 L 196.65625 156.503906 " fill-opacity="1" fill-rule="nonzero"/><path fill="#cb6ce6" d="M 196.65625 168.558594 L 196.65625 177.257812 L 208.933594 172.542969 L 222.382812 178.527344 L 208.933594 170.101562 L 208.933594 166.925781 L 231.152344 177.257812 L 209.082031 162.035156 L 196.65625 168.558594 " fill-opacity="1" fill-rule="nonzero"/><path fill="#cb6ce6" d="M 208.933594 182.15625 L 222.382812 190.578125 L 208.933594 184.597656 L 200.179688 187.957031 L 197.996094 187.957031 L 197.996094 188.796875 L 196.65625 189.308594 L 196.65625 180.609375 L 209.082031 174.085938 L 231.152344 189.308594 L 208.933594 178.976562 L 208.933594 182.15625 " fill-opacity="1" fill-rule="nonzero"/><path fill="#cb6ce6" d="M 231.152344 201.363281 L 216.667969 194.625 L 214.664062 192.621094 L 213.8125 191.773438 L 210.535156 191.773438 L 208.933594 191.03125 L 208.933594 191.773438 L 207.753906 191.773438 L 207.753906 187.957031 L 205.613281 187.957031 L 209.082031 186.136719 L 231.152344 201.363281 " fill-opacity="1" fill-rule="nonzero"/><g clip-path="url(#26f58238a8)"><path fill="#8c52ff" d="M 183.429688 229.128906 L 183.417969 229.117188 L 182.8125 228.5 L 181.625 227.277344 L 175.90625 221.410156 L 174.664062 220.136719 L 174.582031 220.050781 L 173.230469 218.664062 L 173.09375 218.523438 L 171.5625 216.953125 L 170.71875 216.085938 L 170.667969 216.035156 L 169.4375 214.769531 L 167.941406 213.234375 L 161.898438 213.234375 L 161.898438 210.265625 L 158.828125 210.265625 L 158.828125 217.566406 L 158.445312 217.171875 L 157.257812 215.957031 L 157.257812 213.234375 L 146.128906 213.234375 L 145.621094 213.753906 L 145.234375 214.148438 L 144.457031 214.949219 L 129.679688 230.117188 L 133.109375 230.117188 L 142.144531 220.84375 L 142.523438 220.453125 L 144.457031 218.472656 L 145.234375 217.675781 L 145.621094 217.277344 L 145.957031 216.933594 L 146.128906 216.757812 L 146.253906 216.886719 L 147 217.65625 L 147.4375 218.101562 L 147.703125 218.375 L 149.730469 220.453125 L 150.386719 221.125 L 151.078125 221.835938 L 152.136719 222.925781 L 152.839844 223.644531 L 153.535156 224.359375 L 154.21875 225.058594 L 158.183594 229.128906 L 159.144531 230.117188 L 184.390625 230.117188 L 183.429688 229.128906 " fill-opacity="1" fill-rule="nonzero"/></g><path fill="#8c52ff" d="M 143.910156 224.203125 L 145.886719 224.203125 L 145.886719 222.21875 L 143.910156 222.21875 L 143.910156 224.203125 " fill-opacity="1" fill-rule="nonzero"/><path fill="#8c52ff" d="M 143.910156 226.933594 L 145.886719 226.933594 L 145.886719 224.953125 L 143.910156 224.953125 L 143.910156 226.933594 " fill-opacity="1" fill-rule="nonzero"/><g clip-path="url(#72d5b7c033)"><path fill="#8c52ff" d="M 205.136719 226.273438 L 203.453125 224.546875 L 202.023438 223.078125 L 200.34375 221.351562 L 199.148438 220.128906 L 198.914062 219.886719 L 198.429688 219.390625 L 187.945312 219.390625 L 187.945312 221.949219 L 187.847656 222.046875 L 187.246094 222.667969 L 186.464844 223.46875 L 186.464844 216.589844 L 183.574219 216.589844 L 183.574219 219.390625 L 177.875 219.390625 L 177.136719 220.148438 L 177.171875 220.179688 L 182.886719 226.046875 L 184.078125 227.265625 L 184.683594 227.886719 L 185.65625 228.882812 L 185.894531 229.128906 L 188.578125 231.882812 L 165.703125 231.882812 L 162.378906 235.296875 L 186.164062 235.296875 L 187.246094 234.1875 L 187.847656 233.566406 L 189.042969 232.34375 L 192.175781 229.128906 L 192.976562 228.304688 L 194.671875 226.566406 L 194.746094 226.488281 L 195.324219 225.894531 L 197.3125 223.855469 L 198.429688 222.707031 L 199.148438 223.445312 L 199.234375 223.535156 L 200.664062 225.003906 L 202.113281 226.488281 L 202.347656 226.726562 L 202.640625 227.027344 L 204.6875 229.128906 L 210.695312 235.296875 L 213.929688 235.296875 L 207.921875 229.128906 L 205.136719 226.273438 " fill-opacity="1" fill-rule="nonzero"/></g><path fill="#8c52ff" d="M 199.007812 230.121094 L 200.875 230.121094 L 200.875 228.253906 L 199.007812 228.253906 L 199.007812 230.121094 " fill-opacity="1" fill-rule="nonzero"/><path fill="#8c52ff" d="M 196.4375 230.121094 L 198.300781 230.121094 L 198.300781 228.253906 L 196.4375 228.253906 L 196.4375 230.121094 " fill-opacity="1" fill-rule="nonzero"/><path fill="#8c52ff" d="M 199.007812 232.691406 L 200.875 232.691406 L 200.875 230.828125 L 199.007812 230.828125 L 199.007812 232.691406 " fill-opacity="1" fill-rule="nonzero"/><path fill="#8c52ff" d="M 196.4375 232.691406 L 198.300781 232.691406 L 198.300781 230.828125 L 196.4375 230.828125 L 196.4375 232.691406 " fill-opacity="1" fill-rule="nonzero"/><path fill="#8c52ff" d="M 146.640625 224.199219 L 148.621094 224.199219 L 148.621094 222.21875 L 146.640625 222.21875 L 146.640625 224.199219 " fill-opacity="1" fill-rule="nonzero"/><path fill="#8c52ff" d="M 146.640625 226.933594 L 148.621094 226.933594 L 148.621094 224.953125 L 146.640625 224.953125 L 146.640625 226.933594 " fill-opacity="1" fill-rule="nonzero"/><path fill="#8c52ff" d="M 187.789062 206.460938 L 185.097656 206.460938 L 185.097656 209.148438 L 187.789062 209.148438 L 187.789062 206.460938 " fill-opacity="1" fill-rule="nonzero"/><path fill="#8c52ff" d="M 184.082031 206.460938 L 181.390625 206.460938 L 181.390625 209.148438 L 184.082031 209.148438 L 184.082031 206.460938 " fill-opacity="1" fill-rule="nonzero"/><path fill="#8c52ff" d="M 185.097656 212.855469 L 187.789062 212.855469 L 187.789062 210.167969 L 185.097656 210.167969 L 185.097656 212.855469 " fill-opacity="1" fill-rule="nonzero"/><path fill="#8c52ff" d="M 181.390625 212.855469 L 184.082031 212.855469 L 184.082031 210.167969 L 181.390625 210.167969 L 181.390625 212.855469 " fill-opacity="1" fill-rule="nonzero"/><g clip-path="url(#ed6180ac37)"><path fill="#8c52ff" d="M 169.207031 212.003906 L 170.667969 213.503906 L 173.09375 211.015625 L 174.582031 209.488281 L 182.460938 201.40625 L 183.957031 199.867188 L 184.605469 199.203125 L 188.640625 203.21875 L 190.125 204.695312 L 190.945312 205.511719 L 191.75 206.3125 L 193.195312 207.753906 L 194.90625 209.453125 L 196.367188 210.90625 L 198.085938 212.617188 L 199.550781 214.078125 L 201.277344 215.792969 L 202.746094 217.257812 L 204.472656 218.976562 L 205.945312 220.441406 L 207.675781 222.164062 L 212.882812 227.34375 L 245.3125 227.34375 L 245.304688 227.339844 L 245.308594 227.34375 L 244.984375 227.011719 L 244.058594 226.058594 L 243.601562 225.621094 L 243.304688 225.335938 L 243.308594 225.34375 L 243.289062 225.324219 L 215.75 197.796875 L 212.628906 194.675781 L 204.867188 194.675781 L 204.867188 190.863281 L 200.917969 190.863281 L 200.917969 200.238281 L 199.914062 199.207031 L 198.902344 198.171875 L 198.902344 194.675781 L 184.605469 194.675781 L 183.957031 195.34375 L 182.460938 196.878906 L 174.582031 204.964844 L 173.09375 206.492188 L 168.246094 211.46875 L 168.6875 211.46875 L 169.207031 212.003906 " fill-opacity="1" fill-rule="nonzero"/></g></svg>